<svg version="1.1" id="Layer_1" xmlns="http://www.w3.org/2000/svg" xmlns:xlink="http://www.w3.org/1999/xlink" x="0px" y="0px"
	 width="100%" viewBox="0 0 197 206" enable-background="new 0 0 197 206" xml:space="preserve">
<path fill="#FEFDFE" opacity="1.000000" stroke="none" 
	d="
M108.000000,207.000000 
	C72.022034,207.000000 36.544067,207.000000 1.033050,207.000000 
	C1.033050,138.397995 1.033050,69.795975 1.033050,1.096979 
	C66.561134,1.096979 132.122452,1.096979 197.841888,1.096979 
	C197.841888,69.666374 197.841888,138.333160 197.841888,207.000000 
	C168.129593,207.000000 138.314804,207.000000 108.000000,207.000000 
M34.187130,149.002686 
	C33.880314,149.724472 33.573502,150.446259 32.846943,151.533615 
	C32.603443,152.026169 32.359943,152.518707 31.496433,153.203751 
	C30.589767,154.643570 29.683102,156.083405 28.198574,157.834412 
	C27.764713,158.550644 27.330853,159.266891 26.628361,160.343613 
	C26.628361,160.343613 26.489338,160.771149 25.962963,161.001923 
	C25.602711,161.659988 25.242458,162.318039 24.595398,163.355118 
	C24.595398,163.355118 24.441397,163.804779 23.835165,163.954636 
	C22.578192,165.926651 21.321217,167.898682 20.064241,169.870697 
	C20.620779,170.264465 21.177315,170.658234 21.733850,171.051987 
	C23.632801,168.770752 25.531752,166.489502 27.986374,163.880463 
	C33.001511,158.966766 38.016644,154.053085 43.641098,148.844131 
	C48.590851,143.678818 53.540604,138.513489 59.102680,133.110443 
	C64.392036,127.707031 69.681396,122.303627 75.582306,116.655685 
	C78.695419,113.367371 81.808525,110.079048 85.538223,106.578812 
	C88.654610,103.283989 91.771004,99.989174 95.501183,96.498024 
	C98.642944,93.290955 101.784714,90.083885 105.548935,86.711327 
	C106.693260,85.448021 107.837585,84.184715 109.604103,82.860329 
	C109.812309,82.869209 110.020515,82.878090 110.295021,83.361465 
	C110.475822,83.670280 110.744888,83.814400 111.343452,84.377937 
	C111.756065,84.849503 112.168671,85.321060 112.633354,86.427765 
	C114.587502,89.697548 116.541656,92.967323 118.625153,96.917046 
	C119.464081,98.274857 120.303001,99.632668 121.165916,101.680397 
	C122.828430,104.472885 124.490952,107.265373 126.550011,110.723930 
	C129.264542,107.159393 131.610962,104.078247 134.348434,100.456779 
	C135.698837,98.682045 137.049225,96.907318 138.959106,94.842804 
	C140.270859,93.215691 141.582596,91.588577 143.391586,89.750206 
	C143.638733,89.286697 143.885880,88.823196 144.714371,88.094704 
	C145.141556,87.396011 145.568726,86.697319 146.586761,85.691063 
	C148.720856,82.792587 150.854950,79.894119 153.589920,76.682251 
	C157.122772,72.216064 160.728409,67.805008 164.166718,63.267181 
	C167.208633,59.252476 170.064270,55.096619 173.384155,50.439896 
	C175.465134,47.568623 177.546112,44.697353 179.627075,41.826080 
	C179.228210,41.488556 178.829346,41.151035 178.430481,40.813511 
	C175.637222,42.947399 172.843979,45.081291 169.406311,47.278885 
	C168.145950,48.449070 166.885590,49.619259 165.122131,50.955807 
	C164.759048,51.327827 164.395981,51.699852 163.353668,52.155018 
	C160.405243,54.675713 157.456818,57.196404 153.899490,59.959007 
	C150.956543,62.378777 148.013611,64.798546 144.396408,67.254654 
	C139.555908,71.001617 134.715408,74.748581 129.533401,78.759903 
	C127.266602,75.493271 125.225426,72.551788 123.090576,68.987427 
	C121.982880,67.292419 120.875183,65.597404 119.568542,63.213856 
	C119.293228,62.825668 119.017914,62.437481 118.764862,61.348389 
	C116.568459,57.787872 114.372063,54.227352 112.126923,50.291660 
	C112.126923,50.291660 111.852791,50.030918 111.848068,49.333813 
	C110.665047,47.330292 109.482018,45.326771 107.853783,42.569260 
	C106.644432,44.657665 105.950867,45.855381 104.946243,47.315754 
	C104.946243,47.315754 104.846909,47.710571 104.280617,47.950317 
	C103.924385,48.647602 103.568161,49.344891 102.911804,50.287811 
	C102.911804,50.287811 102.823166,50.665379 102.251671,50.915062 
	C101.884293,51.620483 101.516914,52.325901 100.864174,53.251583 
	C100.864174,53.251583 100.790634,53.604477 100.213921,53.866539 
	C99.842117,54.584854 99.470322,55.303173 98.824135,56.222427 
	C98.824135,56.222427 98.761391,56.556679 98.173225,56.832283 
	C97.532860,57.904129 96.892502,58.975975 95.941475,60.297409 
	C95.941475,60.297409 95.856415,60.686729 95.293877,60.939568 
	C94.930687,61.636765 94.567497,62.333961 93.904182,63.263317 
	C93.904182,63.263317 93.828354,63.635098 93.259933,63.900009 
	C92.878754,64.607231 92.497574,65.314453 91.846603,66.209938 
	C91.846603,66.209938 91.814423,66.537354 91.243813,66.835526 
	C90.850700,67.560532 90.457588,68.285530 89.585716,69.465225 
	C89.009331,70.599670 88.432945,71.734116 87.258591,73.150383 
	C86.129807,74.700615 85.001022,76.250854 83.327324,78.205276 
	C81.167847,81.394875 79.008362,84.584465 76.320374,88.160515 
	C75.410118,89.634781 74.499863,91.109047 73.030899,92.934708 
	C70.602524,96.576859 68.174149,100.219009 65.194077,104.245003 
	C60.746998,110.546410 56.194542,116.776817 51.886002,123.171577 
	C48.408192,128.333359 45.224655,133.693420 41.414406,139.290771 
	C40.854000,140.111267 40.293598,140.931763 39.086296,141.931686 
	C38.341045,143.242691 37.595795,144.553696 36.984951,146.005524 
	C36.984951,146.005524 36.843380,145.868820 36.206181,146.025146 
	C35.745819,146.962128 35.285458,147.899094 34.973167,149.005737 
	C34.973167,149.005737 34.812481,148.846695 34.187130,149.002686 
M113.428871,111.416977 
	C112.947769,110.637154 112.466660,109.857323 111.514748,108.559029 
	C109.916359,105.387657 108.317970,102.216278 106.754158,98.400246 
	C106.052269,97.373596 105.350380,96.346954 104.092300,94.506767 
	C101.834503,97.002525 100.044395,99.131363 98.098030,101.106216 
	C90.633537,108.679909 90.614281,108.661903 97.430153,117.035309 
	C97.527695,117.155128 97.707329,117.208130 97.946487,117.949249 
	C99.374992,119.946594 100.803497,121.943939 102.341087,124.734123 
	C102.585724,126.225220 102.830360,127.716316 102.293434,129.126953 
	C101.542374,129.323532 100.791313,129.520111 99.260262,129.517578 
	C94.529869,130.439194 89.799484,131.360794 84.385956,132.201859 
	C83.949379,132.327179 83.512794,132.452484 82.397690,132.358566 
	C81.294533,132.664505 80.191376,132.970444 78.401581,133.198532 
	C77.963181,133.325363 77.524780,133.452194 76.485199,133.363739 
	C75.692970,133.674286 74.900742,133.984848 74.108513,134.295395 
	C75.090797,135.084839 76.073090,135.874283 77.813622,137.001114 
	C80.231049,137.252487 82.648468,137.503860 85.620125,138.178513 
	C86.770538,138.262634 87.920952,138.346756 89.675514,138.777664 
	C90.134148,138.801239 90.592781,138.824814 91.665855,139.272827 
	C105.485725,141.868973 119.305595,144.465118 134.388611,147.298553 
	C128.507233,136.793716 123.291954,127.409615 117.982864,118.078903 
	C117.279778,116.843254 116.099014,115.879410 115.032433,114.139771 
	C114.573349,113.423538 114.114258,112.707306 113.428871,111.416977 
M101.068024,31.182980 
	C100.723000,30.783226 100.377983,30.383471 100.020073,29.309366 
	C99.527870,28.565779 99.035667,27.822191 98.573830,26.519873 
	C98.073166,25.972094 97.572502,25.424314 97.068359,24.402845 
	C97.068359,24.402845 96.747353,24.054495 96.725655,23.356953 
	C94.955582,20.298372 93.185501,17.239794 91.036201,13.525939 
	C87.636559,17.645958 84.765190,21.125763 81.159973,24.603592 
	C78.401009,27.972782 75.642036,31.341974 72.302910,34.942341 
	C71.889366,35.635509 71.475822,36.328678 70.477173,37.328327 
	C68.948479,39.462029 67.419785,41.595730 65.310493,43.954491 
	C64.899925,44.645592 64.489349,45.336689 63.495068,46.337158 
	C61.959183,48.464821 60.423294,50.592487 58.309544,52.951565 
	C57.898327,53.643330 57.487114,54.335091 56.485882,55.338245 
	C54.911556,57.525509 53.337227,59.712772 51.158295,62.141125 
	C48.364075,66.069359 45.569855,69.997589 42.150070,74.196922 
	C42.058693,74.991005 41.967319,75.785095 41.875946,76.579170 
	C42.929745,76.568710 44.263477,76.974457 44.993900,76.483192 
	C52.045979,71.740120 58.996628,66.846230 66.641510,61.838867 
	C68.849312,60.134132 71.057114,58.429398 73.959915,56.519840 
	C78.002060,53.545696 82.044205,50.571552 86.901672,47.915524 
	C87.387932,48.231789 87.874199,48.548050 88.365211,49.537830 
	C90.425285,51.058701 92.485367,52.579567 94.956078,54.403595 
	C96.366592,52.000793 97.562096,49.964252 99.069672,47.670319 
	C99.069672,47.670319 99.171593,47.278847 99.754944,47.068813 
	C100.109955,46.361000 100.464973,45.653187 101.120163,44.709198 
	C101.120163,44.709198 101.212921,44.338692 101.809158,44.106472 
	C102.423500,43.038677 103.037849,41.970886 103.989204,40.623413 
	C103.989204,40.623413 104.125198,40.207115 104.727646,40.027821 
	C103.541100,37.258953 102.354561,34.490086 101.068024,31.182980 
M134.246063,37.429695 
	C132.496689,37.593525 130.747330,37.757359 128.266190,37.884567 
	C122.364708,40.430626 119.401901,44.853832 119.858856,50.435925 
	C120.294380,55.755997 124.069252,60.343498 129.016891,61.565422 
	C134.331818,62.878056 138.631729,61.052200 142.303345,55.938324 
	C142.303345,55.938324 142.385941,55.681519 142.986938,55.243309 
	C146.503799,46.868141 143.134872,39.585686 134.246063,37.429695 
z"/>
<path fill="#35176B" opacity="1.000000" stroke="none" 
	d="
M58.887409,52.720150 
	C60.423294,50.592487 61.959183,48.464821 64.122597,46.125931 
	C65.130447,45.186279 65.510773,44.457855 65.891090,43.729435 
	C67.419785,41.595730 68.948479,39.462029 71.108055,37.119766 
	C72.120316,36.177860 72.501694,35.444511 72.883072,34.711166 
	C75.642036,31.341974 78.401009,27.972782 81.618134,24.895775 
	C82.382584,25.450047 82.688866,25.712137 83.025467,26.326590 
	C84.371750,28.786816 85.687729,30.894678 87.037430,33.341911 
	C88.052185,35.445957 89.033226,37.210632 90.157883,39.287903 
	C94.543671,45.476830 95.173546,45.427559 98.860283,39.433342 
	C99.679291,38.101734 101.034569,37.099968 102.397415,36.168991 
	C103.143005,37.663471 103.634102,38.935291 104.125198,40.207115 
	C104.125198,40.207115 103.989204,40.623413 103.484818,40.816185 
	C102.391266,42.118874 101.802094,43.228783 101.212921,44.338692 
	C101.212921,44.338692 101.120163,44.709198 100.639771,44.879730 
	C99.830109,45.793125 99.500854,46.535988 99.171593,47.278847 
	C99.171593,47.278847 99.069672,47.670319 98.572723,47.844666 
	C95.211632,52.602634 91.720650,49.981857 88.360458,48.864315 
	C87.874199,48.548050 87.387932,48.231789 86.483032,47.458500 
	C83.108452,38.678322 81.981453,38.373596 76.136292,44.374649 
	C75.351250,45.180626 74.696953,46.113960 73.698639,47.124584 
	C72.273209,48.174473 71.131264,49.088097 69.635101,50.006798 
	C68.536362,50.690163 67.791840,51.368458 66.894531,52.335682 
	C65.164551,54.419506 63.587364,56.214401 61.714462,58.148716 
	C59.612793,59.862057 57.806831,61.435970 55.629532,63.002312 
	C54.093090,62.629837 52.927994,62.264935 51.762901,61.900036 
	C53.337227,59.712772 54.911556,57.525509 57.117470,55.125854 
	C58.128513,54.182362 58.507961,53.451256 58.887409,52.720150 
z"/>
<path fill="#5A26B3" opacity="1.000000" stroke="none" 
	d="
M118.742584,62.049294 
	C119.017914,62.437481 119.293228,62.825668 119.282959,63.584221 
	C118.649940,64.905937 117.729095,66.163567 118.047333,66.759377 
	C120.260147,70.902184 122.730125,74.907616 125.224792,79.273392 
	C126.553383,80.715874 127.774834,81.842072 128.998322,83.348862 
	C130.348938,85.829079 131.697495,87.928711 132.890488,90.328293 
	C130.834061,92.105217 128.933182,93.582191 126.772621,95.044952 
	C126.339615,95.025116 126.166313,95.019485 125.846848,94.710953 
	C123.142456,91.265297 120.584236,88.122559 118.018295,84.611877 
	C116.007675,80.827957 114.004776,77.411995 111.964111,73.642014 
	C107.591240,68.902054 103.261230,64.511017 98.903381,60.147793 
	C98.718651,59.962833 98.275536,60.035938 98.105621,59.659676 
	C98.426102,58.405910 98.593750,57.481297 98.761391,56.556679 
	C98.761391,56.556679 98.824135,56.222427 99.303696,56.065338 
	C100.119049,55.140327 100.454842,54.372402 100.790634,53.604477 
	C100.790634,53.604477 100.864174,53.251583 101.340103,53.082691 
	C102.151749,52.164326 102.487457,51.414852 102.823166,50.665379 
	C102.823166,50.665379 102.911804,50.287811 103.385895,50.102058 
	C104.188957,49.181061 104.517937,48.445816 104.846909,47.710571 
	C104.846909,47.710571 104.946243,47.315754 105.426651,47.141968 
	C109.754776,44.366982 109.182724,50.345932 111.852791,50.030918 
	C111.852791,50.030918 112.126923,50.291660 112.108063,50.862358 
	C114.306999,54.971798 116.524796,58.510548 118.742584,62.049294 
z"/>
<path fill="#8A59DD" opacity="1.000000" stroke="none" 
	d="
M41.910576,138.965530 
	C45.224655,133.693420 48.408192,128.333359 51.886002,123.171577 
	C56.194542,116.776817 60.746998,110.546410 65.756454,104.249512 
	C66.266609,107.631088 65.916786,111.215157 71.018578,111.369064 
	C72.337067,113.453178 73.653908,115.176704 74.970749,116.900223 
	C69.681396,122.303627 64.392036,127.707031 58.450508,133.044876 
	C56.851784,132.640137 55.905235,132.300964 54.973221,131.600174 
	C55.678326,129.977676 56.129784,128.477921 57.105152,127.501534 
	C59.822567,124.781303 58.702232,123.403221 55.249500,122.021172 
	C53.442173,125.072655 51.709778,127.997620 49.680149,131.086304 
	C46.892136,133.821854 44.401356,136.393692 41.910576,138.965530 
z"/>
<path fill="#5525A8" opacity="1.000000" stroke="none" 
	d="
M170.050720,47.215176 
	C172.843979,45.081291 175.637222,42.947399 178.430481,40.813511 
	C178.829346,41.151035 179.228210,41.488556 179.627075,41.826080 
	C177.546112,44.697353 175.465134,47.568623 172.845367,50.747028 
	C167.547119,55.541714 162.647690,59.891983 158.071136,64.558884 
	C154.190231,68.516411 150.682388,72.839783 146.707336,77.146637 
	C143.604919,79.865494 140.804626,82.438972 137.997772,84.633148 
	C137.306229,82.126953 136.621246,80.000069 136.096466,77.579590 
	C139.194672,73.930107 142.132660,70.574211 145.070663,67.218307 
	C148.013611,64.798546 150.956543,62.378777 154.582779,59.909798 
	C158.188339,57.264355 161.110626,54.668114 164.032913,52.071877 
	C164.395981,51.699852 164.759048,51.327827 165.732941,50.921192 
	C167.579391,49.662773 168.815048,48.438972 170.050720,47.215176 
z"/>
<path fill="#58309C" opacity="1.000000" stroke="none" 
	d="
M115.139481,114.789680 
	C116.099014,115.879410 117.279778,116.843254 117.982864,118.078903 
	C123.291954,127.409615 128.507233,136.793716 134.388611,147.298553 
	C119.305595,144.465118 105.485725,141.868973 91.633575,138.799637 
	C98.560547,139.225830 105.615448,139.684113 112.448479,141.165665 
	C117.812866,142.328812 120.763329,138.807587 123.796150,136.127014 
	C124.686882,135.339737 122.566345,131.038696 121.673340,128.399689 
	C121.372856,127.511703 120.600075,126.783539 119.991013,125.638962 
	C118.634987,123.186455 117.331100,121.077309 115.870613,118.634552 
	C115.522507,117.130524 115.330994,115.960106 115.139481,114.789680 
z"/>
<path fill="#401A82" opacity="1.000000" stroke="none" 
	d="
M120.043152,125.982330 
	C120.600075,126.783539 121.372856,127.511703 121.673340,128.399689 
	C122.566345,131.038696 124.686882,135.339737 123.796150,136.127014 
	C120.763329,138.807587 117.812866,142.328812 112.448479,141.165665 
	C105.615448,139.684113 98.560547,139.225830 91.326355,138.587418 
	C90.592781,138.824814 90.134148,138.801239 89.267319,138.321106 
	C87.594711,137.828094 86.330307,137.791672 85.065895,137.755249 
	C82.648468,137.503860 80.231049,137.252487 77.435196,136.523132 
	C77.066635,135.223114 77.076508,134.401077 77.086380,133.579041 
	C77.524780,133.452194 77.963181,133.325363 78.956604,133.460480 
	C80.699821,133.340897 81.888023,132.959351 83.076218,132.577789 
	C83.512794,132.452484 83.949379,132.327179 84.887695,132.566864 
	C88.698265,136.858948 93.132347,134.197723 97.271576,135.225098 
	C104.507034,135.537048 111.460648,135.537048 119.153511,135.537048 
	C117.608391,132.717987 116.312965,130.354492 115.368408,127.989883 
	C117.160576,127.319946 118.601868,126.651138 120.043152,125.982330 
z"/>
<path fill="#402175" opacity="1.000000" stroke="none" 
	d="
M142.049469,56.031445 
	C138.631729,61.052200 134.331818,62.878056 129.016891,61.565422 
	C124.069252,60.343498 120.294380,55.755997 119.858856,50.435925 
	C119.401901,44.853832 122.364708,40.430626 128.606110,38.254723 
	C128.632812,39.747589 128.319565,40.870300 127.719299,42.266193 
	C126.172256,51.449310 129.322983,55.872707 137.433868,55.992607 
	C139.252243,56.006256 140.650864,56.018852 142.049469,56.031445 
z"/>
<path fill="#6B39C1" opacity="1.000000" stroke="none" 
	d="
M112.001877,73.996033 
	C114.004776,77.411995 116.007675,80.827957 117.631348,84.577576 
	C115.695175,85.205025 114.138229,85.498825 112.581284,85.792618 
	C112.168671,85.321060 111.756065,84.849503 111.164055,83.864059 
	C110.816826,83.058456 110.564850,82.904053 110.228729,82.886971 
	C110.020515,82.878090 109.812309,82.869209 109.119537,82.665283 
	C107.473267,83.004242 106.311562,83.538261 104.745728,84.052094 
	C101.227043,84.021614 98.112473,84.011322 94.998543,83.749420 
	C94.998367,83.330070 94.997551,83.162346 95.174103,82.733780 
	C96.238564,81.317909 97.125641,80.162872 98.309837,78.860657 
	C99.741379,77.149338 100.875801,75.585182 102.463676,74.015213 
	C105.945381,74.004951 108.973625,74.000496 112.001877,73.996033 
z"/>
<path fill="#51239F" opacity="1.000000" stroke="none" 
	d="
M115.017532,127.991005 
	C116.312965,130.354492 117.608391,132.717987 119.153511,135.537048 
	C111.460648,135.537048 104.507034,135.537048 97.267212,134.868256 
	C98.000748,132.705215 99.020500,131.210938 100.040253,129.716675 
	C100.791313,129.520111 101.542374,129.323532 102.866249,129.378815 
	C104.291695,129.087936 105.144325,128.545197 106.361435,127.964142 
	C108.815887,127.283958 110.905869,126.642075 113.262093,126.120346 
	C114.024742,126.824005 114.521141,127.407509 115.017532,127.991005 
z"/>
<path fill="#44257A" opacity="1.000000" stroke="none" 
	d="
M97.848648,117.292313 
	C97.707329,117.208130 97.527695,117.155128 97.430153,117.035309 
	C90.614281,108.661903 90.633537,108.679909 98.098030,101.106216 
	C100.044395,99.131363 101.834503,97.002525 104.092300,94.506767 
	C105.350380,96.346954 106.052269,97.373596 106.402924,98.686264 
	C104.403114,99.448608 102.221138,99.455482 101.265312,100.541504 
	C100.415054,101.507584 100.413239,103.861626 100.941055,105.262398 
	C101.959198,107.964386 103.615242,110.426010 104.635422,112.996399 
	C102.125580,114.434441 99.987114,115.863373 97.848648,117.292313 
z"/>
<path fill="#7340C9" opacity="1.000000" stroke="none" 
	d="
M94.997910,84.001030 
	C98.112473,84.011322 101.227043,84.021614 104.714668,84.401825 
	C105.033974,85.473434 104.980217,86.175117 104.926468,86.876816 
	C101.784714,90.083885 98.642944,93.290955 95.008682,96.308426 
	C92.343811,94.745987 90.171448,93.373138 88.143188,91.703339 
	C89.191788,89.941414 90.096283,88.476456 91.284912,86.874390 
	C92.712006,85.825203 93.854958,84.913116 94.997910,84.001030 
z"/>
<path fill="#622DBF" opacity="1.000000" stroke="none" 
	d="
M111.964111,73.642014 
	C108.973625,74.000496 105.945381,74.004951 102.162857,73.860016 
	C98.927338,71.126328 96.446091,68.542046 93.968025,65.569756 
	C93.923592,64.666199 93.875969,64.150650 93.828354,63.635098 
	C93.828354,63.635098 93.904182,63.263317 94.379578,63.082363 
	C95.188789,62.163181 95.522606,61.424957 95.856415,60.686729 
	C95.856415,60.686729 95.941475,60.297409 96.380592,60.173164 
	C97.197403,60.028885 97.575096,60.008854 97.952789,59.988823 
	C98.275536,60.035938 98.718651,59.962833 98.903381,60.147793 
	C103.261230,64.511017 107.591240,68.902054 111.964111,73.642014 
z"/>
<path fill="#491F90" opacity="1.000000" stroke="none" 
	d="
M128.006332,41.993011 
	C128.319565,40.870300 128.632812,39.747589 128.972000,38.273033 
	C130.747330,37.757359 132.496689,37.593525 134.695053,37.920666 
	C136.831238,41.719215 138.675186,44.958717 140.151398,48.357933 
	C141.161499,50.683933 141.659180,53.232468 142.385941,55.681519 
	C142.385941,55.681519 142.303345,55.938324 142.176407,55.984886 
	C140.650864,56.018852 139.252243,56.006256 137.392807,55.637497 
	C133.956757,50.851898 130.981552,46.422455 128.006332,41.993011 
z"/>
<path fill="#6D3FBC" opacity="1.000000" stroke="none" 
	d="
M147.009460,77.001266 
	C150.682388,72.839783 154.190231,68.516411 158.071136,64.558884 
	C162.647690,59.891983 167.547119,55.541714 172.654358,51.028625 
	C170.064270,55.096619 167.208633,59.252476 164.166718,63.267181 
	C160.728409,67.805008 157.122772,72.216064 152.944321,76.870987 
	C150.535629,77.040237 148.772552,77.020752 147.009460,77.001266 
z"/>
<path fill="#7946D0" opacity="1.000000" stroke="none" 
	d="
M87.999084,92.000298 
	C90.171448,93.373138 92.343811,94.745987 94.701782,96.406586 
	C91.771004,99.989174 88.654610,103.283989 85.060547,106.394249 
	C82.697227,105.466438 80.811600,104.723190 78.976883,103.643845 
	C79.694267,101.879738 80.360733,100.451721 81.323532,98.872589 
	C83.080826,96.814919 84.541779,94.908379 86.261261,92.894485 
	C87.012886,92.524857 87.505981,92.262573 87.999084,92.000298 
z"/>
<path fill="#48228C" opacity="1.000000" stroke="none" 
	d="
M73.982117,46.988319 
	C74.696953,46.113960 75.351250,45.180626 76.136292,44.374649 
	C81.981453,38.373596 83.108452,38.678322 86.075378,47.299438 
	C82.044205,50.571552 78.002060,53.545696 73.551399,56.198372 
	C73.749886,53.935005 74.546814,52.025005 74.880684,50.037235 
	C75.038483,49.097740 74.309380,48.009285 73.982117,46.988319 
z"/>
<path fill="#2C1259" opacity="1.000000" stroke="none" 
	d="
M105.006798,112.987289 
	C103.615242,110.426010 101.959198,107.964386 100.941055,105.262398 
	C100.413239,103.861626 100.415054,101.507584 101.265312,100.541504 
	C102.221138,99.455482 104.403114,99.448608 106.385635,99.008591 
	C108.317970,102.216278 109.916359,105.387657 111.681656,109.131241 
	C111.825005,110.130066 111.801430,110.556686 111.545982,111.224533 
	C109.865631,112.320747 108.417168,113.175728 106.715515,113.914444 
	C105.977150,113.527878 105.491974,113.257584 105.006798,112.987289 
z"/>
<path fill="#5326A0" opacity="1.000000" stroke="none" 
	d="
M56.000877,63.009888 
	C57.806831,61.435970 59.612793,59.862057 61.982410,58.382141 
	C63.689468,59.649242 64.832870,60.822346 65.976265,61.995449 
	C58.996628,66.846230 52.045979,71.740120 44.993900,76.483192 
	C44.263477,76.974457 42.929745,76.568710 41.875946,76.579178 
	C41.967319,75.785095 42.058693,74.991005 42.825104,74.061852 
	C47.667049,70.287819 51.833961,66.648849 56.000877,63.009888 
z"/>
<path fill="#7B46D6" opacity="1.000000" stroke="none" 
	d="
M88.143188,91.703339 
	C87.505981,92.262573 87.012886,92.524857 85.987686,92.698730 
	C83.836464,88.774101 80.444267,88.093285 76.848885,87.774063 
	C79.008362,84.584465 81.167847,81.394875 83.739227,78.248047 
	C84.434181,78.528465 84.717232,78.766121 85.032852,79.349106 
	C87.043877,82.133461 89.022331,84.572479 91.000778,87.011497 
	C90.096283,88.476456 89.191788,89.941414 88.143188,91.703339 
z"/>
<path fill="#6833C6" opacity="1.000000" stroke="none" 
	d="
M41.662491,139.128143 
	C44.401356,136.393692 46.892136,133.821854 49.805702,131.375885 
	C50.869205,132.020248 51.509918,132.538757 52.075363,133.402161 
	C48.642994,138.147781 45.285896,142.548523 41.635735,147.106750 
	C39.636097,148.964401 38.086670,150.882111 36.158310,152.275330 
	C35.156647,152.999023 33.485283,152.795776 32.116447,153.011261 
	C32.359943,152.518707 32.603443,152.026169 33.364731,151.272125 
	C34.192505,150.289322 34.502495,149.568008 34.812485,148.846695 
	C34.812481,148.846695 34.973167,149.005737 35.229294,148.854065 
	C35.938076,147.757858 36.390728,146.813339 36.843380,145.868820 
	C36.843380,145.868820 36.984951,146.005524 37.254616,145.859985 
	C38.260590,144.393723 38.996895,143.072983 39.733196,141.752258 
	C40.293598,140.931763 40.854000,140.111267 41.662491,139.128143 
z"/>
<path fill="#7241C4" opacity="1.000000" stroke="none" 
	d="
M146.707336,77.146637 
	C148.772552,77.020752 150.535629,77.040237 152.643890,77.027679 
	C150.854950,79.894119 148.720856,82.792587 145.944199,85.898773 
	C144.912094,86.857559 144.522568,87.608620 144.133026,88.359688 
	C143.885880,88.823196 143.638733,89.286697 142.752655,89.855629 
	C140.050598,89.621269 137.987473,89.281487 136.064636,88.656914 
	C136.804703,87.252235 137.404526,86.132347 138.004349,85.012451 
	C140.804626,82.438972 143.604919,79.865494 146.707336,77.146637 
z"/>
<path fill="#804DD7" opacity="1.000000" stroke="none" 
	d="
M78.925980,103.979942 
	C80.811600,104.723190 82.697227,105.466438 84.752243,106.500206 
	C81.808525,110.079048 78.695419,113.367371 75.276535,116.777954 
	C73.653908,115.176704 72.337067,113.453178 71.282364,111.246262 
	C72.030144,110.175659 72.515785,109.588440 73.270691,108.802437 
	C75.335289,107.062416 77.130638,105.521179 78.925980,103.979942 
z"/>
<path fill="#4D2395" opacity="1.000000" stroke="none" 
	d="
M66.308884,61.917156 
	C64.832870,60.822346 63.689468,59.649242 62.278122,58.242718 
	C63.587364,56.214401 65.164551,54.419506 67.209625,52.296844 
	C68.448120,51.313290 69.218719,50.657509 69.989319,50.001724 
	C71.131264,49.088097 72.273209,48.174473 73.698639,47.124584 
	C74.309380,48.009285 75.038483,49.097740 74.880684,50.037235 
	C74.546814,52.025005 73.749886,53.935005 73.203903,56.300781 
	C71.057114,58.429398 68.849312,60.134132 66.308884,61.917156 
z"/>
<path fill="#7B4FC4" opacity="1.000000" stroke="none" 
	d="
M144.733536,67.236481 
	C142.132660,70.574211 139.194672,73.930107 135.799774,77.735168 
	C133.227325,79.778976 131.111801,81.373627 128.996277,82.968269 
	C127.774834,81.842072 126.553383,80.715874 125.469803,79.046761 
	C124.799858,75.539330 123.992058,72.574814 123.184250,69.610298 
	C125.225426,72.551788 127.266602,75.493271 129.533401,78.759903 
	C134.715408,74.748581 139.555908,71.001617 144.733536,67.236481 
z"/>
<path fill="#7946D0" opacity="1.000000" stroke="none" 
	d="
M125.993019,95.013863 
	C126.166313,95.019485 126.339615,95.025116 127.024986,95.312447 
	C131.157913,95.440292 134.778763,95.286438 138.399628,95.132584 
	C137.049225,96.907318 135.698837,98.682045 133.693726,100.728516 
	C129.073334,100.996986 125.107628,100.993729 121.141930,100.990479 
	C120.303001,99.632668 119.464081,98.274857 118.933609,96.419655 
	C121.492378,95.619469 123.742699,95.316666 125.993019,95.013863 
z"/>
<path fill="#442183" opacity="1.000000" stroke="none" 
	d="
M90.014259,38.975311 
	C89.033226,37.210632 88.052185,35.445957 87.401466,33.334595 
	C90.175957,29.957314 92.620132,26.926718 95.344482,23.932491 
	C95.998886,23.997404 96.373123,24.025949 96.747353,24.054495 
	C96.747353,24.054495 97.068359,24.402845 97.017090,24.954517 
	C97.491699,26.030327 98.017586,26.554466 98.543472,27.078604 
	C99.035667,27.822191 99.527870,28.565779 99.723091,29.801617 
	C98.026192,32.029728 96.793869,33.945789 95.177559,35.448971 
	C93.668503,36.852409 91.751633,37.817356 90.014259,38.975311 
z"/>
<path fill="#7544CA" opacity="1.000000" stroke="none" 
	d="
M125.846848,94.710953 
	C123.742699,95.316666 121.492378,95.619469 118.868927,96.079681 
	C116.541656,92.967323 114.587502,89.697548 112.607315,86.110191 
	C114.138229,85.498825 115.695175,85.205025 117.639069,84.945526 
	C120.584236,88.122559 123.142456,91.265297 125.846848,94.710953 
z"/>
<path fill="#976CE1" opacity="1.000000" stroke="none" 
	d="
M41.928802,146.949280 
	C45.285896,142.548523 48.642994,138.147781 52.375008,133.366974 
	C53.486176,132.645203 54.222431,132.303497 54.958687,131.961777 
	C55.905235,132.300964 56.851784,132.640137 58.144344,133.163742 
	C53.540604,138.513489 48.590851,143.678818 43.311153,148.665710 
	C42.630405,147.974609 42.279606,147.461945 41.928802,146.949280 
z"/>
<path fill="#9F78E1" opacity="1.000000" stroke="none" 
	d="
M41.635735,147.106750 
	C42.279606,147.461945 42.630405,147.974609 43.006493,148.813324 
	C38.016644,154.053085 33.001511,158.966766 27.211094,163.972672 
	C25.771009,163.978180 25.106203,163.891479 24.441397,163.804779 
	C24.441397,163.804779 24.595398,163.355118 25.060982,163.155548 
	C25.847490,162.227692 26.168417,161.499420 26.489340,160.771149 
	C26.489338,160.771149 26.628361,160.343613 27.130531,160.117981 
	C28.013945,159.102646 28.395189,158.312927 28.776436,157.523224 
	C29.683102,156.083405 30.589767,154.643570 31.806440,153.107513 
	C33.485283,152.795776 35.156647,152.999023 36.158310,152.275330 
	C38.086670,150.882111 39.636097,148.964401 41.635735,147.106750 
z"/>
<path fill="#6833C6" opacity="1.000000" stroke="none" 
	d="
M93.964844,65.957756 
	C96.446091,68.542046 98.927338,71.126328 101.709404,73.865822 
	C100.875801,75.585182 99.741379,77.149338 98.271622,78.512924 
	C95.504158,74.963631 93.689476,70.452454 88.026855,73.026260 
	C87.970177,72.973602 87.856560,72.868553 87.856560,72.868553 
	C88.432945,71.734116 89.009331,70.599670 90.173248,69.174934 
	C91.111992,68.102211 91.463203,67.319786 91.814423,66.537354 
	C91.814423,66.537354 91.846603,66.209938 92.289902,66.116440 
	C93.143753,66.001221 93.554298,65.979492 93.964844,65.957756 
z"/>
<path fill="#5D35A3" opacity="1.000000" stroke="none" 
	d="
M142.686432,55.462414 
	C141.659180,53.232468 141.161499,50.683933 140.151398,48.357933 
	C138.675186,44.958717 136.831238,41.719215 135.033844,38.112423 
	C143.134872,39.585686 146.503799,46.868141 142.686432,55.462414 
z"/>
<path fill="#381774" opacity="1.000000" stroke="none" 
	d="
M90.157883,39.287907 
	C91.751633,37.817356 93.668503,36.852409 95.177559,35.448971 
	C96.793869,33.945789 98.026192,32.029728 99.729538,30.138794 
	C100.377983,30.383471 100.723000,30.783226 101.065491,31.817072 
	C101.422951,33.616222 101.782944,34.781277 102.142937,35.946335 
	C101.034569,37.099968 99.679291,38.101734 98.860283,39.433342 
	C95.173546,45.427559 94.543671,45.476830 90.157883,39.287907 
z"/>
<path fill="#442183" opacity="1.000000" stroke="none" 
	d="
M104.635422,112.996399 
	C105.491974,113.257584 105.977150,113.527878 106.760986,114.267540 
	C107.706467,116.489586 108.353294,118.242271 108.631950,120.002670 
	C106.494011,121.281082 104.724228,122.551781 102.770859,123.834038 
	C102.587257,123.845596 102.231995,123.941284 102.231995,123.941284 
	C100.803497,121.943939 99.374992,119.946594 97.897568,117.620773 
	C99.987114,115.863373 102.125580,114.434441 104.635422,112.996399 
z"/>
<path fill="#8755DB" opacity="1.000000" stroke="none" 
	d="
M76.584625,87.967285 
	C80.444267,88.093285 83.836464,88.774101 85.729156,92.806076 
	C84.541779,94.908379 83.080826,96.814919 81.310738,98.495850 
	C80.303322,94.345566 77.828865,92.777718 73.904510,92.892395 
	C73.802544,92.786354 73.589600,92.583313 73.589600,92.583313 
	C74.499863,91.109047 75.410118,89.634781 76.584625,87.967285 
z"/>
<path fill="#7F4ED3" opacity="1.000000" stroke="none" 
	d="
M121.153923,101.335434 
	C125.107628,100.993729 129.073334,100.996986 133.498199,100.998672 
	C131.610962,104.078247 129.264542,107.159393 126.550011,110.723930 
	C124.490952,107.265373 122.828430,104.472885 121.153923,101.335434 
z"/>
<path fill="#7847CB" opacity="1.000000" stroke="none" 
	d="
M138.679367,94.987701 
	C134.778763,95.286438 131.157913,95.440292 127.284683,95.326653 
	C128.933182,93.582191 130.834061,92.105217 133.173340,90.196686 
	C134.382629,89.490646 135.153503,89.216179 135.924362,88.941704 
	C137.987473,89.281487 140.050598,89.621269 142.504028,89.961258 
	C141.582596,91.588577 140.270859,93.215691 138.679367,94.987701 
z"/>
<path fill="#35176B" opacity="1.000000" stroke="none" 
	d="
M109.000114,119.994949 
	C108.353294,118.242271 107.706467,116.489586 107.014175,114.383804 
	C108.417168,113.175728 109.865631,112.320747 111.794342,111.333786 
	C112.734772,111.464897 113.194969,111.727982 113.655167,111.991074 
	C114.114258,112.707306 114.573349,113.423538 115.085953,114.464722 
	C115.330994,115.960106 115.522507,117.130524 115.713776,118.945831 
	C114.142746,120.393356 112.571953,121.196007 110.876923,121.734970 
	C110.168503,120.979179 109.584312,120.487061 109.000114,119.994949 
z"/>
<path fill="#6440A2" opacity="1.000000" stroke="none" 
	d="
M96.736504,23.705723 
	C96.373123,24.025949 95.998886,23.997404 95.285690,23.588669 
	C94.637199,22.632908 94.441498,21.941433 93.996223,21.504066 
	C92.785927,20.315306 91.469963,19.234127 90.195892,18.110304 
	C89.292679,19.363609 88.504654,20.724686 87.457794,21.843592 
	C86.076530,23.319906 84.492195,24.606230 82.995155,25.974228 
	C82.688866,25.712137 82.382584,25.450047 81.985054,24.896763 
	C84.765190,21.125763 87.636559,17.645958 91.036201,13.525939 
	C93.185501,17.239794 94.955582,20.298372 96.736504,23.705723 
z"/>
<path fill="#5D35A3" opacity="1.000000" stroke="none" 
	d="
M99.650253,129.617126 
	C99.020500,131.210938 98.000748,132.705215 96.985352,134.556305 
	C93.132347,134.197723 88.698265,136.858948 85.229263,132.607132 
	C89.799484,131.360794 94.529869,130.439194 99.650253,129.617126 
z"/>
<path fill="#8B5BDD" opacity="1.000000" stroke="none" 
	d="
M73.001427,109.001221 
	C72.515785,109.588440 72.030144,110.175659 71.280716,110.885674 
	C65.916786,111.215157 66.266609,107.631088 66.032303,104.057587 
	C68.174149,100.219009 70.602524,96.576859 73.310249,92.759010 
	C73.589600,92.583313 73.802544,92.786354 73.901299,93.266876 
	C72.752724,96.223961 71.676399,98.806473 70.221687,101.154564 
	C67.385719,105.732185 67.609497,106.566238 73.001427,109.001221 
z"/>
<path fill="#402077" opacity="1.000000" stroke="none" 
	d="
M55.629532,63.002312 
	C51.833961,66.648849 47.667049,70.287819 43.137886,73.926300 
	C45.569855,69.997589 48.364075,66.069359 51.460594,62.020576 
	C52.927994,62.264935 54.093090,62.629837 55.629532,63.002312 
z"/>
<path fill="#7449BE" opacity="1.000000" stroke="none" 
	d="
M123.137413,69.298859 
	C123.992058,72.574814 124.799858,75.539330 125.362648,78.730476 
	C122.730125,74.907616 120.260147,70.902184 118.047333,66.759377 
	C117.729095,66.163567 118.649940,64.905937 119.382431,63.928490 
	C120.875183,65.597404 121.982880,67.292419 123.137413,69.298859 
z"/>
<path fill="#61488D" opacity="1.000000" stroke="none" 
	d="
M88.362839,49.201073 
	C91.720650,49.981857 95.211632,52.602634 98.416695,47.973358 
	C97.562096,49.964252 96.366592,52.000793 94.956078,54.403595 
	C92.485367,52.579567 90.425285,51.058701 88.362839,49.201073 
z"/>
<path fill="#A988E2" opacity="1.000000" stroke="none" 
	d="
M24.138281,163.879700 
	C25.106203,163.891479 25.771009,163.978180 26.933258,164.136566 
	C25.531752,166.489502 23.632801,168.770752 21.733850,171.051987 
	C21.177315,170.658234 20.620779,170.264465 20.064241,169.870697 
	C21.321217,167.898682 22.578192,165.926651 24.138281,163.879700 
z"/>
<path fill="#7449BE" opacity="1.000000" stroke="none" 
	d="
M163.693298,52.113449 
	C161.110626,54.668114 158.188339,57.264355 154.887238,59.788841 
	C157.456818,57.196404 160.405243,54.675713 163.693298,52.113449 
z"/>
<path fill="#7449BE" opacity="1.000000" stroke="none" 
	d="
M118.753723,61.698845 
	C116.524796,58.510548 114.306999,54.971798 112.132431,51.049942 
	C114.372063,54.227352 116.568459,57.787872 118.753723,61.698845 
z"/>
<path fill="#7449BE" opacity="1.000000" stroke="none" 
	d="
M111.850433,49.682365 
	C109.182724,50.345932 109.754776,44.366982 105.582176,47.010635 
	C105.950867,45.855381 106.644432,44.657665 107.853783,42.569260 
	C109.482018,45.326771 110.665047,47.330292 111.850433,49.682365 
z"/>
<path fill="#61488D" opacity="1.000000" stroke="none" 
	d="
M102.397415,36.168991 
	C101.782944,34.781277 101.422951,33.616222 101.115479,32.086189 
	C102.354561,34.490086 103.541100,37.258953 104.426422,40.117470 
	C103.634102,38.935291 103.143005,37.663471 102.397415,36.168991 
z"/>
<path fill="#5D35A3" opacity="1.000000" stroke="none" 
	d="
M76.785782,133.471390 
	C77.076508,134.401077 77.066635,135.223114 77.056076,136.354431 
	C76.073090,135.874283 75.090797,135.084839 74.108513,134.295395 
	C74.900742,133.984848 75.692970,133.674286 76.785782,133.471390 
z"/>
<path fill="#5D35A3" opacity="1.000000" stroke="none" 
	d="
M102.286545,124.337708 
	C102.231995,123.941284 102.587257,123.845596 103.016907,124.064865 
	C104.296692,125.523567 105.146820,126.763000 105.996948,128.002441 
	C105.144325,128.545197 104.291695,129.087936 103.257034,129.419037 
	C102.830360,127.716316 102.585724,126.225220 102.286545,124.337708 
z"/>
<path fill="#9F78E1" opacity="1.000000" stroke="none" 
	d="
M105.237701,86.794067 
	C104.980217,86.175117 105.033974,85.473434 105.118790,84.422012 
	C106.311562,83.538261 107.473267,83.004242 108.808441,82.695824 
	C107.837585,84.184715 106.693260,85.448021 105.237701,86.794067 
z"/>
<path fill="#6833C6" opacity="1.000000" stroke="none" 
	d="
M85.000290,79.003769 
	C84.717232,78.766121 84.434181,78.528465 84.011688,78.045952 
	C85.001022,76.250854 86.129807,74.700615 87.557571,73.009468 
	C87.856560,72.868553 87.970177,72.973602 87.999245,73.389023 
	C88.017250,74.533676 88.006187,75.262894 87.714821,76.129379 
	C86.623108,77.179024 85.811699,78.091400 85.000290,79.003769 
z"/>
<path fill="#7449BE" opacity="1.000000" stroke="none" 
	d="
M169.728516,47.247028 
	C168.815048,48.438972 167.579391,49.662773 165.984482,50.838013 
	C166.885590,49.619259 168.145950,48.449070 169.728516,47.247028 
z"/>
<path fill="#A988E2" opacity="1.000000" stroke="none" 
	d="
M39.409744,141.841980 
	C38.996895,143.072983 38.260590,144.393723 37.187412,145.789566 
	C37.595795,144.553696 38.341045,143.242691 39.409744,141.841980 
z"/>
<path fill="#5D35A3" opacity="1.000000" stroke="none" 
	d="
M82.736954,132.468185 
	C81.888023,132.959351 80.699821,133.340897 79.299919,133.499420 
	C80.191376,132.970444 81.294533,132.664505 82.736954,132.468185 
z"/>
<path fill="#58309C" opacity="1.000000" stroke="none" 
	d="
M85.343010,137.966888 
	C86.330307,137.791672 87.594711,137.828094 88.965240,138.147705 
	C87.920952,138.346756 86.770538,138.262634 85.343010,137.966888 
z"/>
<path fill="#7449BE" opacity="1.000000" stroke="none" 
	d="
M98.105621,59.659676 
	C97.575096,60.008854 97.197403,60.028885 96.535927,60.048370 
	C96.892502,58.975975 97.532860,57.904129 98.467308,56.694481 
	C98.593750,57.481297 98.426102,58.405910 98.105621,59.659676 
z"/>
<path fill="#61488D" opacity="1.000000" stroke="none" 
	d="
M101.511040,44.222580 
	C101.802094,43.228783 102.391266,42.118874 103.316315,40.956028 
	C103.037849,41.970886 102.423500,43.038677 101.511040,44.222580 
z"/>
<path fill="#58309C" opacity="1.000000" stroke="none" 
	d="
M113.542023,111.704025 
	C113.194969,111.727982 112.734772,111.464897 112.026215,111.092552 
	C111.801430,110.556686 111.825005,110.130066 111.917068,109.390472 
	C112.466660,109.857323 112.947769,110.637154 113.542023,111.704025 
z"/>
<path fill="#A988E2" opacity="1.000000" stroke="none" 
	d="
M36.524780,145.946991 
	C36.390728,146.813339 35.938076,147.757858 35.155258,148.769226 
	C35.285458,147.899094 35.745819,146.962128 36.524780,145.946991 
z"/>
<path fill="#A988E2" opacity="1.000000" stroke="none" 
	d="
M26.226152,160.886536 
	C26.168417,161.499420 25.847490,162.227692 25.204384,162.966034 
	C25.242458,162.318039 25.602711,161.659988 26.226152,160.886536 
z"/>
<path fill="#7449BE" opacity="1.000000" stroke="none" 
	d="
M104.563766,47.830444 
	C104.517937,48.445816 104.188957,49.181061 103.535957,49.979240 
	C103.568161,49.344891 103.924385,48.647602 104.563766,47.830444 
z"/>
<path fill="#A988E2" opacity="1.000000" stroke="none" 
	d="
M34.499809,148.924683 
	C34.502495,149.568008 34.192505,150.289322 33.574604,151.089340 
	C33.573502,150.446259 33.880314,149.724472 34.499809,148.924683 
z"/>
<path fill="#A988E2" opacity="1.000000" stroke="none" 
	d="
M28.487505,157.678818 
	C28.395189,158.312927 28.013945,159.102646 27.264847,159.937744 
	C27.330853,159.266891 27.764713,158.550644 28.487505,157.678818 
z"/>
<path fill="#402077" opacity="1.000000" stroke="none" 
	d="
M72.592987,34.826752 
	C72.501694,35.444511 72.120316,36.177860 71.400604,36.966530 
	C71.475822,36.328678 71.889366,35.635509 72.592987,34.826752 
z"/>
<path fill="#402077" opacity="1.000000" stroke="none" 
	d="
M65.600792,43.841965 
	C65.510773,44.457855 65.130447,45.186279 64.414452,45.971245 
	C64.489349,45.336689 64.899925,44.645592 65.600792,43.841965 
z"/>
<path fill="#61488D" opacity="1.000000" stroke="none" 
	d="
M99.463272,47.173828 
	C99.500854,46.535988 99.830109,45.793125 100.489685,44.997818 
	C100.464973,45.653187 100.109955,46.361000 99.463272,47.173828 
z"/>
<path fill="#7847CB" opacity="1.000000" stroke="none" 
	d="
M144.423706,88.227196 
	C144.522568,87.608620 144.912094,86.857559 145.648773,86.052559 
	C145.568726,86.697319 145.141556,87.396011 144.423706,88.227196 
z"/>
<path fill="#7449BE" opacity="1.000000" stroke="none" 
	d="
M102.537415,50.790222 
	C102.487457,51.414852 102.151749,52.164326 101.482788,52.972561 
	C101.516914,52.325901 101.884293,51.620483 102.537415,50.790222 
z"/>
<path fill="#402077" opacity="1.000000" stroke="none" 
	d="
M58.598476,52.835857 
	C58.507961,53.451256 58.128513,54.182362 57.412479,54.970161 
	C57.487114,54.335091 57.898327,53.643330 58.598476,52.835857 
z"/>
<path fill="#7449BE" opacity="1.000000" stroke="none" 
	d="
M100.502274,53.735508 
	C100.454842,54.372402 100.119049,55.140327 99.440887,55.964867 
	C99.470322,55.303173 99.842117,54.584854 100.502274,53.735508 
z"/>
<path fill="#7449BE" opacity="1.000000" stroke="none" 
	d="
M95.575150,60.813148 
	C95.522606,61.424957 95.188789,62.163181 94.529648,62.966286 
	C94.567497,62.333961 94.930687,61.636765 95.575150,60.813148 
z"/>
<path fill="#7449BE" opacity="1.000000" stroke="none" 
	d="
M93.968025,65.569756 
	C93.554298,65.979492 93.143753,66.001221 92.424805,66.022308 
	C92.497574,65.314453 92.878754,64.607231 93.544144,63.767555 
	C93.875969,64.150650 93.923592,64.666199 93.968025,65.569756 
z"/>
<path fill="#7449BE" opacity="1.000000" stroke="none" 
	d="
M91.529114,66.686440 
	C91.463203,67.319786 91.111992,68.102211 90.412628,68.947586 
	C90.457588,68.285530 90.850700,67.560532 91.529114,66.686440 
z"/>
<path fill="#6440A2" opacity="1.000000" stroke="none" 
	d="
M98.558655,26.799238 
	C98.017586,26.554466 97.491699,26.030327 97.018829,25.191362 
	C97.572502,25.424314 98.073166,25.972094 98.558655,26.799238 
z"/>
<path fill="#9F78E1" opacity="1.000000" stroke="none" 
	d="
M110.261871,83.124222 
	C110.564850,82.904053 110.816826,83.058456 111.043442,83.572006 
	C110.744888,83.814400 110.475822,83.670280 110.261871,83.124222 
z"/>
<path fill="#451C8C" opacity="1.000000" stroke="none" 
	d="
M83.025467,26.326591 
	C84.492195,24.606230 86.076530,23.319906 87.457794,21.843592 
	C88.504654,20.724686 89.292679,19.363609 90.195892,18.110304 
	C91.469963,19.234127 92.785927,20.315306 93.996223,21.504066 
	C94.441498,21.941433 94.637199,22.632908 95.005516,23.552299 
	C92.620132,26.926718 90.175957,29.957314 87.367744,32.995224 
	C85.687729,30.894678 84.371750,28.786816 83.025467,26.326591 
z"/>
<path fill="#402077" opacity="1.000000" stroke="none" 
	d="
M69.635101,50.006798 
	C69.218719,50.657509 68.448120,51.313290 67.362419,52.007912 
	C67.791840,51.368458 68.536362,50.690163 69.635101,50.006798 
z"/>
<path fill="#5624AD" opacity="1.000000" stroke="none" 
	d="
M136.064636,88.656914 
	C135.153503,89.216179 134.382629,89.490646 133.328918,89.896729 
	C131.697495,87.928711 130.348938,85.829079 128.998322,83.348862 
	C131.111801,81.373627 133.227325,79.778976 135.639557,78.028755 
	C136.621246,80.000069 137.306229,82.126953 137.997772,84.633148 
	C137.404526,86.132347 136.804703,87.252235 136.064636,88.656914 
z"/>
<path fill="#7740D5" opacity="1.000000" stroke="none" 
	d="
M54.973221,131.600174 
	C54.222431,132.303497 53.486176,132.645203 52.450272,133.022095 
	C51.509918,132.538757 50.869205,132.020248 50.102936,131.212158 
	C51.709778,127.997620 53.442173,125.072655 55.249500,122.021172 
	C58.702232,123.403221 59.822567,124.781303 57.105152,127.501534 
	C56.129784,128.477921 55.678326,129.977676 54.973221,131.600174 
z"/>
<path fill="#381774" opacity="1.000000" stroke="none" 
	d="
M111.001152,121.998650 
	C112.571953,121.196007 114.142746,120.393356 115.870377,119.279434 
	C117.331100,121.077309 118.634987,123.186455 119.991013,125.638962 
	C118.601868,126.651138 117.160576,127.319946 115.368416,127.989883 
	C114.521141,127.407509 114.024742,126.824005 113.234528,125.794601 
	C112.294197,124.232018 111.647675,123.115334 111.001152,121.998650 
z"/>
<path fill="#401A82" opacity="1.000000" stroke="none" 
	d="
M127.719299,42.266193 
	C130.981552,46.422455 133.956757,50.851898 136.973022,55.636448 
	C129.322983,55.872707 126.172256,51.449310 127.719299,42.266193 
z"/>
<path fill="#692CD1" opacity="1.000000" stroke="none" 
	d="
M87.995117,75.992119 
	C88.006187,75.262894 88.017250,74.533676 88.055923,73.441689 
	C93.689476,70.452454 95.504158,74.963631 97.974503,78.660095 
	C97.125641,80.162872 96.238564,81.317909 94.829643,82.700439 
	C92.203575,80.615990 90.099350,78.304054 87.995117,75.992119 
z"/>
<path fill="#7035D4" opacity="1.000000" stroke="none" 
	d="
M87.714813,76.129379 
	C90.099350,78.304054 92.203575,80.615990 94.652267,82.961273 
	C94.997551,83.162346 94.998367,83.330070 94.998543,83.749420 
	C93.854958,84.913116 92.712006,85.825203 91.284912,86.874390 
	C89.022331,84.572479 87.043877,82.133461 85.032852,79.349106 
	C85.811699,78.091400 86.623108,77.179024 87.714813,76.129379 
z"/>
<path fill="#4D2395" opacity="1.000000" stroke="none" 
	d="
M110.876923,121.734970 
	C111.647675,123.115334 112.294197,124.232018 112.968277,125.674438 
	C110.905869,126.642075 108.815887,127.283958 106.361435,127.964142 
	C105.146820,126.763000 104.296692,125.523567 103.200500,124.053307 
	C104.724228,122.551781 106.494011,121.281082 108.631950,120.002670 
	C109.584312,120.487061 110.168503,120.979179 110.876923,121.734970 
z"/>
<path fill="#9468E1" opacity="1.000000" stroke="none" 
	d="
M73.270691,108.802437 
	C67.609497,106.566238 67.385719,105.732185 70.221687,101.154564 
	C71.676399,98.806473 72.752724,96.223961 74.003265,93.372925 
	C77.828865,92.777718 80.303322,94.345566 81.014404,98.646973 
	C80.360733,100.451721 79.694267,101.879738 78.976891,103.643845 
	C77.130638,105.521179 75.335289,107.062416 73.270691,108.802437 
z"/>
</svg>